<svg xmlns="http://www.w3.org/2000/svg" width="32.16" height="20.95" viewBox="0 0 32.16 20.95"><defs><style>.a{fill:#cbc9ba;}</style></defs><g transform="translate(-1.72 -7.53)"><path class="a" d="M33.62,17.53c-3.37-6.23-9.28-10-15.82-10S5.34,11.3,2,17.53L1.72,18l.26.48c3.37,6.23,9.28,10,15.82,10s12.46-3.72,15.82-10l.26-.48ZM17.8,26.43A15.907,15.907,0,0,1,4,18,15.907,15.907,0,0,1,17.8,9.57c5.63,0,10.74,3.15,13.79,8.43C28.54,23.29,23.42,26.43,17.8,26.43Z"/><path class="a" d="M18.09,11.17a6.86,6.86,0,1,0,4.872,1.981A6.86,6.86,0,0,0,18.09,11.17Zm0,11.72a4.87,4.87,0,1,1,3.477-1.419A4.86,4.86,0,0,1,18.09,22.89Z"/></g></svg>